<svg width="40" height="25" viewBox="0 0 40 25" fill="none" xmlns="http://www.w3.org/2000/svg">
<path d="M8.24219 0C6.57227 0 5.0293 0.834961 4.10156 2.22656L0.625 7.42188C0.214844 8.03711 0 8.75 0 9.49219V17.7734C0 18.916 0.766601 19.917 1.875 20.1953L5.11719 21.0156C5.58594 23.2861 7.59766 25 10 25C12.3145 25 14.248 23.3984 14.8047 21.25H26.4453C27.002 23.3984 28.9355 25 31.25 25C33.5645 25 35.498 23.3984 36.0547 21.25H37.5C38.8672 21.25 40 20.1172 40 18.75V14.1797C40 11.8896 38.4326 9.8877 36.2109 9.33594L29.4531 7.61719L24.5703 1.79688C23.6182 0.65918 22.2266 0 20.7422 0H8.24219ZM8.24219 2.5H13.75V7.5H3.59375L6.17188 3.63281V3.59375C6.63574 2.89551 7.40234 2.5 8.24219 2.5ZM16.25 2.5H20.7422C21.4844 2.5 22.1826 2.82715 22.6562 3.39844L26.0938 7.5H16.25V2.5ZM2.5 10H28.5938L35.625 11.7578C36.7432 12.0361 37.5 13.0273 37.5 14.1797V18.75H36.0547C35.498 16.6016 33.5645 15 31.25 15C28.9355 15 27.002 16.6016 26.4453 18.75H14.8047C14.248 16.6016 12.3145 15 10 15C7.7832 15 5.92285 16.4648 5.27344 18.4766L2.5 17.7734V10ZM10 17.5C11.3965 17.5 12.5 18.6035 12.5 20C12.5 21.3965 11.3965 22.5 10 22.5C8.60352 22.5 7.5 21.3965 7.5 20C7.5 18.6035 8.60352 17.5 10 17.5ZM31.25 17.5C32.6465 17.5 33.75 18.6035 33.75 20C33.75 21.3965 32.6465 22.5 31.25 22.5C29.8535 22.5 28.75 21.3965 28.75 20C28.75 18.6035 29.8535 17.5 31.25 17.5Z" fill="black"/>
</svg>
