<svg width="40" height="40" viewBox="0 0 40 40" fill="none" xmlns="http://www.w3.org/2000/svg">
<path d="M0.00463763 29.9604C0.0146435 29.4 0.287345 28.6346 0.765127 28.1993L6.17329 22.9062C6.75364 22.2958 8.13948 22.1733 8.69981 22.5135C8.90243 22.5185 11.5415 24.0919 11.9242 24.6772C13.4676 27.0436 11.0637 29.2499 8.98746 28.547L8.112 28.0167L4.1045 31.9491C2.51106 33.2649 -0.125439 32.1792 0.00463763 29.9604V29.9604ZM29.0668 0.240262C30.0423 -0.0148886 31.0431 -0.037386 31.9936 0.0376583L28.5915 5.80607C28.4251 6.08459 28.3159 6.3935 28.2704 6.71473C28.2249 7.03596 28.244 7.36305 28.3264 7.67683C28.4089 7.99062 28.5532 8.28479 28.7507 8.54214C28.9483 8.79948 29.1952 9.01487 29.477 9.1756L31.6658 10.4489C31.9466 10.6138 32.2572 10.7216 32.5797 10.7664C32.9023 10.8111 33.2305 10.7918 33.5456 10.7096C33.8606 10.6273 34.1563 10.4837 34.4159 10.287C34.6754 10.0903 34.8935 9.84443 35.0579 9.56332L38.4598 3.79492C38.9902 4.58288 39.4605 5.46086 39.7156 6.43144C40.9313 11.0642 38.1373 15.807 33.472 17.0202C32.4964 17.2754 31.4933 17.2979 30.5427 17.2228L28.5365 20.012L20.0064 19.9544C20.0064 19.9544 23.8062 13.5082 24.0763 13.4656C23.5124 12.6637 23.0878 11.7723 22.8206 10.829C21.6048 6.19629 24.399 1.45348 29.0668 0.240262V0.240262Z" fill="#666666"/>
<path d="M9.00221 1.74116C8.42687 1.85873 7.89414 2.06884 7.36383 2.28897C7.3213 3.84989 7.58144 5.89612 6.97358 6.43143C6.37573 6.95674 4.37957 6.51647 2.83615 6.35387C2.50663 6.94807 2.24481 7.57738 2.05566 8.22998C3.24887 9.22057 4.90477 10.3287 4.94479 11.1217C4.98231 11.9247 3.37893 13.1354 2.29079 14.2486C2.54844 14.8939 2.91608 15.4843 3.30381 16.0471C4.82471 15.7294 6.71844 15.1116 7.36383 15.5769C8.02171 16.0521 8.02661 18.0933 8.22172 19.6418C8.84709 19.8294 9.50255 19.9044 10.173 19.9544C10.8759 18.5686 11.5913 16.6525 12.3593 16.4373C13.1473 16.2147 14.7657 17.583 16.1065 18.391C16.6518 18.0133 17.1371 17.548 17.5899 17.0652C16.9545 15.6319 15.7888 13.8308 16.1065 13.0754C16.4242 12.3199 18.5429 11.8997 20.0088 11.3568C20.0188 11.1717 20.0863 10.9966 20.0863 10.809C20.0863 10.3312 20.0013 9.86101 19.9312 9.40324C18.4178 9.0005 16.2666 8.79785 15.8714 8.07242C15.4811 7.35199 16.4767 5.41833 16.9645 3.92995C16.4629 3.48014 15.9134 3.08674 15.326 2.75678C14.0753 3.69483 12.6169 5.24572 11.8139 5.10313C11.021 4.96305 10.1579 3.05194 9.3149 1.74116C9.21484 1.75867 9.10227 1.72115 9.00221 1.74116V1.74116ZM10.5632 6.43143C12.8896 6.43143 14.7782 8.3226 14.7782 10.654C14.7772 11.488 14.5289 12.303 14.0647 12.996C13.6006 13.6889 12.9415 14.2287 12.1706 14.547C11.3997 14.8654 10.5517 14.9481 9.73385 14.7846C8.916 14.6211 8.16497 14.2188 7.57574 13.6285C6.98652 13.0383 6.58553 12.2865 6.42348 11.4684C6.26144 10.6502 6.34573 9.80239 6.66548 9.03208C6.98522 8.26177 7.52611 7.6036 8.21989 7.1407C8.91368 6.6778 9.72916 6.43094 10.5632 6.43143V6.43143Z" fill="#666666"/>
<path d="M7.49707 22.4558H32.4769L32.4969 37.6222C32.4969 38.853 31.3162 39.9662 30.0079 39.9662H10.0161C9.68745 39.9672 9.36185 39.9031 9.05805 39.7778C8.75425 39.6524 8.47824 39.4681 8.24596 39.2356C8.01367 39.0031 7.82965 38.7269 7.70456 38.423C7.57947 38.119 7.51575 37.7933 7.51707 37.4647L7.49707 22.4558Z" fill="#666666"/>
<path d="M39.9283 29.9027C39.9158 29.3424 39.6456 28.577 39.1653 28.1418L33.7596 22.8486C33.1768 22.2383 31.7908 22.1157 31.2305 22.4559C31.0304 22.4609 28.3889 24.0343 28.0087 24.6196C26.4653 26.986 28.8691 29.1923 30.9428 28.4894L31.8185 27.9592L35.8258 31.8915C37.4217 33.2097 40.0583 32.1216 39.9283 29.9027V29.9027Z" fill="#666666"/>
</svg>
