<svg width="40" height="28" viewBox="0 0 40 28" fill="none" xmlns="http://www.w3.org/2000/svg">
<path fill-rule="evenodd" clip-rule="evenodd" d="M33.1815 25C30.9221 25 29.0906 23.1685 29.0906 20.9091C29.0906 18.6498 30.9221 16.8182 33.1815 16.8182C35.4408 16.8182 37.2724 18.6498 37.2724 20.9091C37.2724 23.1685 35.4408 25 33.1815 25ZM33.1815 27.7273C29.4159 27.7273 26.3633 24.6747 26.3633 20.9091C26.3633 17.1436 29.4159 14.0909 33.1815 14.0909C36.947 14.0909 39.9996 17.1436 39.9996 20.9091C39.9996 24.6747 36.947 27.7273 33.1815 27.7273Z" fill="#333333"/>
<path fill-rule="evenodd" clip-rule="evenodd" d="M24.919 0.532909C24.7715 0.208363 24.4479 0 24.0914 0H19.3188C18.8167 0 18.4097 0.407018 18.4097 0.909091C18.4097 1.41116 18.8167 1.81818 19.3188 1.81818H23.506L32.3548 21.2853C32.5625 21.7424 33.1015 21.9445 33.5585 21.7367C34.0156 21.5289 34.2177 20.99 34.0099 20.5329L24.919 0.532909Z" fill="#333333"/>
<path fill-rule="evenodd" clip-rule="evenodd" d="M6.81818 25C4.55884 25 2.72727 23.1685 2.72727 20.9091C2.72727 18.6498 4.55884 16.8182 6.81818 16.8182C9.07755 16.8182 10.9091 18.6498 10.9091 20.9091C10.9091 23.1685 9.07755 25 6.81818 25ZM6.81818 27.7273C3.0526 27.7273 0 24.6747 0 20.9091C0 17.1436 3.0526 14.0909 6.81818 14.0909C10.5837 14.0909 13.6364 17.1436 13.6364 20.9091C13.6364 24.6747 10.5837 27.7273 6.81818 27.7273Z" fill="#333333"/>
<path fill-rule="evenodd" clip-rule="evenodd" d="M28.7675 11.5774C28.3835 11.254 27.8099 11.3031 27.4866 11.6872L20.4862 20H6.81827C6.31619 20 5.90918 20.407 5.90918 20.9091C5.90918 21.4112 6.31619 21.8182 6.81827 21.8182H20.9092C21.1774 21.8182 21.4318 21.6998 21.6046 21.4947L28.8773 12.8584C29.2007 12.4743 29.1516 11.9008 28.7675 11.5774V11.5774Z" fill="#333333"/>
<path fill-rule="evenodd" clip-rule="evenodd" d="M19.7789 20.6082L15.688 16.0627L17.0394 14.8464L21.1304 19.3919L19.7789 20.6082Z" fill="#333333"/>
<path d="M23.4332 6.86619C23.2792 6.55819 22.9645 6.36365 22.6201 6.36365H21.5947C18.3967 6.36365 15.1194 7.54356 14.1848 10.602C14.1382 10.7547 14.2524 10.9091 14.4121 10.9091H23.9837C24.6596 10.9091 25.099 10.1979 24.7968 9.59347L23.4332 6.86619Z" fill="#333333"/>
<path d="M3.63623 8.1818C3.63623 7.67971 4.04325 7.27271 4.54532 7.27271H8.63623C8.92241 7.27271 9.19178 7.40743 9.3635 7.63634L10.7271 9.45452C11.1766 10.0538 10.749 10.9091 9.99987 10.9091H4.54532C4.04325 10.9091 3.63623 10.502 3.63623 9.99998V8.1818Z" fill="#333333"/>
<path d="M30.3426 7.67369C30.1544 7.20314 30.3873 6.6695 30.8604 6.48759L34.8696 4.9455C35.4067 4.73896 35.9981 5.07696 36.0927 5.64459L36.6122 8.76114C36.7139 9.37168 36.189 9.90323 35.5772 9.80914L31.4226 9.16996C31.1046 9.12105 30.8363 8.90768 30.7167 8.60905L30.3426 7.67369Z" fill="#333333"/>
<path d="M22.2725 14.091C22.2725 13.5889 21.8655 13.1819 21.3635 13.1819H14.9998C13.9956 13.1819 13.1816 13.7686 13.1816 14.7728C13.1816 15.7769 13.9956 16.3637 14.9998 16.3637H20.4544C21.4585 16.3637 22.2725 15.7769 22.2725 14.7728V14.091Z" fill="#333333"/>
<path fill-rule="evenodd" clip-rule="evenodd" d="M35.6442 5.71922C35.5969 5.4354 35.3012 5.2664 35.0327 5.36968L31.0234 6.91177C30.7869 7.00268 30.6704 7.2695 30.7645 7.50477L31.1387 8.44013C31.1984 8.5895 31.3326 8.69613 31.4916 8.72058L35.6461 9.35977C35.952 9.40686 36.2145 9.14113 36.1637 8.83577L35.6442 5.71922ZM34.7063 4.52122C35.5119 4.2114 36.399 4.7184 36.5409 5.56977L37.0604 8.68631C37.213 9.60222 36.4256 10.3995 35.5079 10.2583L31.3533 9.61913C30.8764 9.54577 30.4738 9.22586 30.2946 8.77777L29.9204 7.8424C29.6381 7.13659 29.9875 6.33613 30.697 6.06322L34.7063 4.52122ZM13.7503 10.4692C14.7759 7.11286 18.3373 5.90913 21.5949 5.90913H22.6203C23.1368 5.90913 23.6089 6.20095 23.8399 6.66295L25.2036 9.39022C25.6569 10.2969 24.9976 11.3637 23.9839 11.3637H14.4123C13.9471 11.3637 13.6144 10.914 13.7503 10.4692V10.4692ZM14.7148 10.4546H23.9839C24.3219 10.4546 24.5416 10.0989 24.3905 9.79677L23.0269 7.06949C22.9499 6.91549 22.7925 6.81822 22.6203 6.81822H21.5949C18.5648 6.81822 15.6701 7.89595 14.7148 10.4546V10.4546ZM3.18213 8.18186C3.18213 7.42877 3.79265 6.81822 4.54577 6.81822H8.63667C9.06586 6.81822 9.47004 7.02031 9.72758 7.36368L11.0912 9.18186C11.7654 10.0809 11.124 11.3637 10.0003 11.3637H4.54577C3.79265 11.3637 3.18213 10.7531 3.18213 10V8.18186ZM4.54577 7.72731C4.29473 7.72731 4.09122 7.93086 4.09122 8.18186V10C4.09122 10.251 4.29473 10.4546 4.54577 10.4546H10.0003C10.3749 10.4546 10.5887 10.0269 10.3639 9.72731L9.00031 7.90913C8.91449 7.79468 8.77977 7.72731 8.63667 7.72731H4.54577ZM13.4249 13.2505C13.8503 12.8986 14.4135 12.7273 15.0003 12.7273H21.3639C22.117 12.7273 22.7276 13.3379 22.7276 14.0909V14.7728C22.7276 15.4094 22.4643 15.9359 22.0302 16.295C21.6049 16.647 21.0417 16.8182 20.4549 16.8182H15.0003C14.4135 16.8182 13.8503 16.647 13.4249 16.295C12.9909 15.9359 12.7276 15.4094 12.7276 14.7728C12.7276 14.1361 12.9909 13.6097 13.4249 13.2505V13.2505ZM14.0044 13.9509C13.7805 14.1362 13.6367 14.4052 13.6367 14.7728C13.6367 15.1403 13.7805 15.4093 14.0044 15.5946C14.237 15.787 14.5829 15.9091 15.0003 15.9091H20.4549C20.8722 15.9091 21.2181 15.787 21.4508 15.5946C21.6747 15.4093 21.8185 15.1403 21.8185 14.7728V14.0909C21.8185 13.8399 21.6149 13.6364 21.3639 13.6364H15.0003C14.5829 13.6364 14.237 13.7585 14.0044 13.9509Z" fill="#333333"/>
</svg>
