<svg width="40" height="35" viewBox="0 0 40 35" fill="none" xmlns="http://www.w3.org/2000/svg">
<path d="M21.7293 0.720156C21.349 0.263829 20.7858 0 20.1918 0C19.5978 0 19.0345 0.263829 18.6542 0.720156C15.7436 4.21298 9.92599 8.42015 6.57619 10.2912C6.02796 10.5974 5.65521 11.1433 5.56951 11.7653L2.9325 30.9049H2.00143C0.896082 30.9049 0 31.801 0 32.9064C0 34.0118 0.896082 34.9078 2.00143 34.9078H11.4618L11.4789 34.9079H28.7445L28.7616 34.9078H37.9986C39.1038 34.9078 40 34.0118 40 32.9064C40 31.801 39.1038 30.9049 37.9986 30.9049H37.451L34.814 11.7653C34.7283 11.1433 34.3556 10.5974 33.8073 10.2912C30.4575 8.42015 24.64 4.21298 21.7293 0.720156V0.720156ZM29.7772 30.9042C26.5463 26.2858 24.2244 21.7171 22.0721 13.4473C21.8422 12.5642 21.0442 11.9484 20.1317 11.95C19.2192 11.9516 18.4232 12.5702 18.1965 13.4541C15.8273 22.6903 13.0469 27.381 10.4733 30.9042H6.97327L9.40141 13.2805C12.5157 11.4209 17.0185 8.16957 20.1918 4.96375C23.3651 8.16957 27.8678 11.4209 30.9821 13.2805L33.4102 30.9042H29.7772ZM24.9666 30.9042H15.3293C16.9581 28.3711 18.603 25.2331 20.1399 20.8763C21.5545 24.875 23.1172 27.9814 24.9666 30.9042V30.9042Z" fill="#212121"/>
</svg>
