<svg width="40" height="30" viewBox="0 0 40 30" fill="none" xmlns="http://www.w3.org/2000/svg">
<path fill-rule="evenodd" clip-rule="evenodd" d="M33.75 2.5H6.25C5.91848 2.5 5.60054 2.6317 5.36612 2.86612C5.1317 3.10054 5 3.41848 5 3.75V22.5H35V3.75C35 3.41848 34.8683 3.10054 34.6339 2.86612C34.3995 2.6317 34.0815 2.5 33.75 2.5ZM6.25 0C5.25544 0 4.30161 0.395088 3.59835 1.09835C2.89509 1.80161 2.5 2.75544 2.5 3.75V25H37.5V3.75C37.5 2.75544 37.1049 1.80161 36.4017 1.09835C35.6984 0.395088 34.7446 0 33.75 0H6.25Z" fill="black"/>
<path d="M0 25H40V26.25C40 27.2446 39.6049 28.1984 38.9017 28.9017C38.1984 29.6049 37.2446 30 36.25 30H3.75C2.75544 30 1.80161 29.6049 1.09835 28.9017C0.395088 28.1984 0 27.2446 0 26.25L0 25Z" fill="black"/>
</svg>
