<svg width="40" height="37" viewBox="0 0 40 37" fill="none" xmlns="http://www.w3.org/2000/svg">
<path d="M2 0.015787C1.46957 0.015787 0.960859 0.226501 0.585786 0.601573C0.210714 0.976646 0 1.48535 0 2.01579V10.0158V13.0158C0 16.3958 2.06 19.2758 5 20.4558V33.0158C5 33.8114 5.31607 34.5745 5.87868 35.1371C6.44129 35.6997 7.20435 36.0158 8 36.0158C8.79565 36.0158 9.55871 35.6997 10.1213 35.1371C10.6839 34.5745 11 33.8114 11 33.0158V20.4558C13.94 19.2758 16 16.3958 16 13.0158V10.0158V2.01579C16 1.48535 15.7893 0.976646 15.4142 0.601573C15.0391 0.226501 14.5304 0.015787 14 0.015787C13.4696 0.015787 12.9609 0.226501 12.5858 0.601573C12.2107 0.976646 12 1.48535 12 2.01579V10.0158C12 10.281 11.8946 10.5354 11.7071 10.7229C11.5196 10.9104 11.2652 11.0158 11 11.0158C10.7348 11.0158 10.4804 10.9104 10.2929 10.7229C10.1054 10.5354 10 10.281 10 10.0158V2.01579C10 1.48535 9.78929 0.976646 9.41421 0.601573C9.03914 0.226501 8.53043 0.015787 8 0.015787C7.46957 0.015787 6.96086 0.226501 6.58579 0.601573C6.21071 0.976646 6 1.48535 6 2.01579V10.0158C6 10.281 5.89464 10.5354 5.70711 10.7229C5.51957 10.9104 5.26522 11.0158 5 11.0158C4.73478 11.0158 4.48043 10.9104 4.29289 10.7229C4.10536 10.5354 4 10.281 4 10.0158V2.01579C4 1.48535 3.78929 0.976646 3.41421 0.601573C3.03914 0.226501 2.53043 0.015787 2 0.015787M35.76 0.015787C35.5 0.015787 35.24 0.195787 35 0.335787L28 4.51579V12.0158H20V16.0158H22L24 36.0158H36L38 16.0158H40V12.0158H32V6.69579L37 3.69579C38 3.13579 38.26 2.01579 37.68 1.01579C37.26 0.295787 36.52 -0.084213 35.76 0.015787V0.015787Z" fill="black"/>
</svg>
